<svg width="37" height="19" viewBox="0 0 37 19" fill="none" xmlns="http://www.w3.org/2000/svg">
<rect width="37" height="19" rx="2" fill="#39A0FF"/>
<path d="M14.4588 8.32812H12.5923C12.5582 8.08665 12.4886 7.87216 12.3835 7.68466C12.2784 7.49432 12.1435 7.33239 11.9787 7.19886C11.8139 7.06534 11.6236 6.96307 11.4077 6.89205C11.1946 6.82102 10.9631 6.78551 10.7131 6.78551C10.2614 6.78551 9.8679 6.89773 9.53267 7.12216C9.19744 7.34375 8.9375 7.66761 8.75284 8.09375C8.56818 8.51705 8.47585 9.03125 8.47585 9.63636C8.47585 10.2585 8.56818 10.7812 8.75284 11.2045C8.94034 11.6278 9.2017 11.9474 9.53693 12.1634C9.87216 12.3793 10.2599 12.4872 10.7003 12.4872C10.9474 12.4872 11.1761 12.4545 11.3864 12.3892C11.5994 12.3239 11.7884 12.2287 11.9531 12.1037C12.1179 11.9759 12.2543 11.821 12.3622 11.6392C12.473 11.4574 12.5497 11.25 12.5923 11.017L14.4588 11.0256C14.4105 11.4261 14.2898 11.8125 14.0966 12.1847C13.9063 12.554 13.6491 12.8849 13.3253 13.1776C13.0043 13.4673 12.6207 13.6974 12.1747 13.8679C11.7315 14.0355 11.2301 14.1193 10.6705 14.1193C9.89205 14.1193 9.19602 13.9432 8.58239 13.5909C7.97159 13.2386 7.48864 12.7287 7.13352 12.0611C6.78125 11.3935 6.60511 10.5852 6.60511 9.63636C6.60511 8.68466 6.78409 7.875 7.14205 7.20739C7.5 6.53977 7.9858 6.03125 8.59943 5.68182C9.21307 5.32955 9.90341 5.15341 10.6705 5.15341C11.1761 5.15341 11.6449 5.22443 12.0767 5.36648C12.5114 5.50852 12.8963 5.71591 13.2315 5.98864C13.5668 6.25852 13.8395 6.58949 14.0497 6.98153C14.2628 7.37358 14.3991 7.82244 14.4588 8.32812ZM20.5163 7.78267C20.4822 7.43892 20.3359 7.17187 20.0774 6.98153C19.8189 6.79119 19.468 6.69602 19.0249 6.69602C18.7237 6.69602 18.4695 6.73864 18.2621 6.82386C18.0547 6.90625 17.8956 7.02131 17.7848 7.16903C17.6768 7.31676 17.6229 7.48438 17.6229 7.67188C17.6172 7.82812 17.6499 7.96449 17.7209 8.08097C17.7947 8.19744 17.8956 8.2983 18.0234 8.38352C18.1513 8.46591 18.299 8.53835 18.4666 8.60085C18.6342 8.66051 18.8132 8.71165 19.0036 8.75426L19.7876 8.94176C20.1683 9.02699 20.5178 9.14062 20.8359 9.28267C21.1541 9.42472 21.4297 9.59943 21.6626 9.80682C21.8956 10.0142 22.076 10.2585 22.2038 10.5398C22.3345 10.821 22.4013 11.1435 22.4041 11.5071C22.4013 12.0412 22.2649 12.5043 21.995 12.8963C21.728 13.2855 21.3416 13.5881 20.8359 13.804C20.3331 14.017 19.7266 14.1236 19.0163 14.1236C18.3118 14.1236 17.6982 14.0156 17.1754 13.7997C16.6555 13.5838 16.2493 13.2642 15.9567 12.8409C15.6669 12.4148 15.5149 11.8878 15.5007 11.2599H17.2862C17.3061 11.5526 17.3899 11.7969 17.5376 11.9929C17.6882 12.1861 17.8885 12.3324 18.1385 12.4318C18.3913 12.5284 18.6768 12.5767 18.995 12.5767C19.3075 12.5767 19.5788 12.5312 19.8089 12.4403C20.0419 12.3494 20.2223 12.223 20.3501 12.0611C20.478 11.8991 20.5419 11.7131 20.5419 11.5028C20.5419 11.3068 20.4837 11.142 20.3672 11.0085C20.2536 10.875 20.0859 10.7614 19.8643 10.6676C19.6456 10.5739 19.3771 10.4886 19.0589 10.4119L18.1087 10.1733C17.3729 9.99432 16.7919 9.71449 16.3658 9.33381C15.9396 8.95312 15.728 8.44034 15.7308 7.79545C15.728 7.26705 15.8686 6.8054 16.1527 6.41051C16.4396 6.01562 16.8331 5.70739 17.3331 5.4858C17.8331 5.2642 18.4013 5.15341 19.0376 5.15341C19.6854 5.15341 20.2507 5.2642 20.7337 5.4858C21.2195 5.70739 21.5973 6.01562 21.8672 6.41051C22.1371 6.8054 22.2763 7.26278 22.2848 7.78267H20.5163ZM28.3796 7.78267C28.3455 7.43892 28.1992 7.17187 27.9407 6.98153C27.6822 6.79119 27.3313 6.69602 26.8881 6.69602C26.587 6.69602 26.3327 6.73864 26.1254 6.82386C25.918 6.90625 25.7589 7.02131 25.6481 7.16903C25.5401 7.31676 25.4862 7.48438 25.4862 7.67188C25.4805 7.82812 25.5131 7.96449 25.5842 8.08097C25.658 8.19744 25.7589 8.2983 25.8867 8.38352C26.0146 8.46591 26.1623 8.53835 26.3299 8.60085C26.4975 8.66051 26.6765 8.71165 26.8668 8.75426L27.6509 8.94176C28.0316 9.02699 28.381 9.14062 28.6992 9.28267C29.0174 9.42472 29.293 9.59943 29.5259 9.80682C29.7589 10.0142 29.9393 10.2585 30.0671 10.5398C30.1978 10.821 30.2646 11.1435 30.2674 11.5071C30.2646 12.0412 30.1282 12.5043 29.8583 12.8963C29.5913 13.2855 29.2049 13.5881 28.6992 13.804C28.1964 14.017 27.5898 14.1236 26.8796 14.1236C26.1751 14.1236 25.5614 14.0156 25.0387 13.7997C24.5188 13.5838 24.1126 13.2642 23.82 12.8409C23.5302 12.4148 23.3782 11.8878 23.364 11.2599H25.1495C25.1694 11.5526 25.2532 11.7969 25.4009 11.9929C25.5515 12.1861 25.7518 12.3324 26.0018 12.4318C26.2546 12.5284 26.5401 12.5767 26.8583 12.5767C27.1708 12.5767 27.4421 12.5312 27.6722 12.4403C27.9052 12.3494 28.0856 12.223 28.2134 12.0611C28.3413 11.8991 28.4052 11.7131 28.4052 11.5028C28.4052 11.3068 28.3469 11.142 28.2305 11.0085C28.1168 10.875 27.9492 10.7614 27.7276 10.6676C27.5089 10.5739 27.2404 10.4886 26.9222 10.4119L25.9719 10.1733C25.2362 9.99432 24.6552 9.71449 24.229 9.33381C23.8029 8.95312 23.5913 8.44034 23.5941 7.79545C23.5913 7.26705 23.7319 6.8054 24.016 6.41051C24.3029 6.01562 24.6964 5.70739 25.1964 5.4858C25.6964 5.2642 26.2646 5.15341 26.9009 5.15341C27.5487 5.15341 28.114 5.2642 28.5969 5.4858C29.0827 5.70739 29.4606 6.01562 29.7305 6.41051C30.0004 6.8054 30.1396 7.26278 30.1481 7.78267H28.3796Z" fill="white"/>
</svg>
