<svg width="27" height="19" viewBox="0 0 27 19" fill="none" xmlns="http://www.w3.org/2000/svg">
<rect width="27" height="19" rx="2" fill="#FFCE20"/>
<path d="M10.2528 5.27273H12.0767V11.358C12.0767 11.9205 11.9503 12.4091 11.6974 12.8239C11.4474 13.2386 11.0994 13.5582 10.6534 13.7827C10.2074 14.0071 9.68892 14.1193 9.09801 14.1193C8.57244 14.1193 8.09517 14.027 7.66619 13.8423C7.24006 13.6548 6.90199 13.3707 6.65199 12.9901C6.40199 12.6065 6.27841 12.125 6.28125 11.5455H8.1179C8.12358 11.7756 8.17045 11.973 8.25852 12.1378C8.34943 12.2997 8.47301 12.4247 8.62926 12.5128C8.78835 12.598 8.97585 12.6406 9.19176 12.6406C9.41903 12.6406 9.6108 12.5923 9.76705 12.4957C9.92614 12.3963 10.0469 12.2514 10.1293 12.0611C10.2116 11.8707 10.2528 11.6364 10.2528 11.358V5.27273ZM18.3366 7.78267C18.3026 7.43892 18.1563 7.17187 17.8977 6.98153C17.6392 6.79119 17.2884 6.69602 16.8452 6.69602C16.544 6.69602 16.2898 6.73864 16.0824 6.82386C15.875 6.90625 15.7159 7.02131 15.6051 7.16903C15.4972 7.31676 15.4432 7.48438 15.4432 7.67188C15.4375 7.82812 15.4702 7.96449 15.5412 8.08097C15.6151 8.19744 15.7159 8.2983 15.8438 8.38352C15.9716 8.46591 16.1193 8.53835 16.2869 8.60085C16.4545 8.66051 16.6335 8.71165 16.8239 8.75426L17.608 8.94176C17.9886 9.02699 18.3381 9.14062 18.6562 9.28267C18.9744 9.42472 19.25 9.59943 19.483 9.80682C19.7159 10.0142 19.8963 10.2585 20.0241 10.5398C20.1548 10.821 20.2216 11.1435 20.2244 11.5071C20.2216 12.0412 20.0852 12.5043 19.8153 12.8963C19.5483 13.2855 19.1619 13.5881 18.6562 13.804C18.1534 14.017 17.5469 14.1236 16.8366 14.1236C16.1321 14.1236 15.5185 14.0156 14.9957 13.7997C14.4759 13.5838 14.0696 13.2642 13.777 12.8409C13.4872 12.4148 13.3352 11.8878 13.321 11.2599H15.1065C15.1264 11.5526 15.2102 11.7969 15.358 11.9929C15.5085 12.1861 15.7088 12.3324 15.9588 12.4318C16.2116 12.5284 16.4972 12.5767 16.8153 12.5767C17.1278 12.5767 17.3991 12.5312 17.6293 12.4403C17.8622 12.3494 18.0426 12.223 18.1705 12.0611C18.2983 11.8991 18.3622 11.7131 18.3622 11.5028C18.3622 11.3068 18.304 11.142 18.1875 11.0085C18.0739 10.875 17.9063 10.7614 17.6847 10.6676C17.4659 10.5739 17.1974 10.4886 16.8793 10.4119L15.929 10.1733C15.1932 9.99432 14.6122 9.71449 14.1861 9.33381C13.7599 8.95312 13.5483 8.44034 13.5511 7.79545C13.5483 7.26705 13.6889 6.8054 13.973 6.41051C14.2599 6.01562 14.6534 5.70739 15.1534 5.4858C15.6534 5.2642 16.2216 5.15341 16.858 5.15341C17.5057 5.15341 18.071 5.2642 18.554 5.4858C19.0398 5.70739 19.4176 6.01562 19.6875 6.41051C19.9574 6.8054 20.0966 7.26278 20.1051 7.78267H18.3366Z" fill="black"/>
</svg>
