<svg width="45" height="19" viewBox="0 0 45 19" fill="none" xmlns="http://www.w3.org/2000/svg">
<rect width="45" height="19" rx="2" fill="#DD6ADF"/>
<path d="M11.4929 7.78267C11.4588 7.43892 11.3125 7.17187 11.054 6.98153C10.7955 6.79119 10.4446 6.69602 10.0014 6.69602C9.70028 6.69602 9.44602 6.73864 9.23864 6.82386C9.03125 6.90625 8.87216 7.02131 8.76136 7.16903C8.65341 7.31676 8.59943 7.48438 8.59943 7.67188C8.59375 7.82812 8.62642 7.96449 8.69744 8.08097C8.77131 8.19744 8.87216 8.2983 9 8.38352C9.12784 8.46591 9.27557 8.53835 9.44318 8.60085C9.6108 8.66051 9.78977 8.71165 9.98011 8.75426L10.7642 8.94176C11.1449 9.02699 11.4943 9.14062 11.8125 9.28267C12.1307 9.42472 12.4063 9.59943 12.6392 9.80682C12.8722 10.0142 13.0526 10.2585 13.1804 10.5398C13.3111 10.821 13.3778 11.1435 13.3807 11.5071C13.3778 12.0412 13.2415 12.5043 12.9716 12.8963C12.7045 13.2855 12.3182 13.5881 11.8125 13.804C11.3097 14.017 10.7031 14.1236 9.9929 14.1236C9.28835 14.1236 8.67472 14.0156 8.15199 13.7997C7.6321 13.5838 7.22585 13.2642 6.93324 12.8409C6.64347 12.4148 6.49148 11.8878 6.47727 11.2599H8.26278C8.28267 11.5526 8.36648 11.7969 8.5142 11.9929C8.66477 12.1861 8.86506 12.3324 9.11506 12.4318C9.3679 12.5284 9.65341 12.5767 9.97159 12.5767C10.2841 12.5767 10.5554 12.5312 10.7855 12.4403C11.0185 12.3494 11.1989 12.223 11.3267 12.0611C11.4545 11.8991 11.5185 11.7131 11.5185 11.5028C11.5185 11.3068 11.4602 11.142 11.3438 11.0085C11.2301 10.875 11.0625 10.7614 10.8409 10.6676C10.6222 10.5739 10.3537 10.4886 10.0355 10.4119L9.08523 10.1733C8.34943 9.99432 7.76847 9.71449 7.34233 9.33381C6.91619 8.95312 6.70455 8.44034 6.70739 7.79545C6.70455 7.26705 6.84517 6.8054 7.12926 6.41051C7.41619 6.01562 7.80966 5.70739 8.30966 5.4858C8.80966 5.2642 9.37784 5.15341 10.0142 5.15341C10.6619 5.15341 11.2273 5.2642 11.7102 5.4858C12.196 5.70739 12.5739 6.01562 12.8438 6.41051C13.1136 6.8054 13.2528 7.26278 13.2614 7.78267H11.4929ZM22.3221 8.32812H20.4556C20.4215 8.08665 20.3519 7.87216 20.2468 7.68466C20.1417 7.49432 20.0067 7.33239 19.842 7.19886C19.6772 7.06534 19.4869 6.96307 19.271 6.89205C19.0579 6.82102 18.8263 6.78551 18.5763 6.78551C18.1246 6.78551 17.7312 6.89773 17.396 7.12216C17.0607 7.34375 16.8008 7.66761 16.6161 8.09375C16.4315 8.51705 16.3391 9.03125 16.3391 9.63636C16.3391 10.2585 16.4315 10.7812 16.6161 11.2045C16.8036 11.6278 17.065 11.9474 17.4002 12.1634C17.7354 12.3793 18.1232 12.4872 18.5636 12.4872C18.8107 12.4872 19.0394 12.4545 19.2496 12.3892C19.4627 12.3239 19.6516 12.2287 19.8164 12.1037C19.9812 11.9759 20.1175 11.821 20.2255 11.6392C20.3363 11.4574 20.413 11.25 20.4556 11.017L22.3221 11.0256C22.2738 11.4261 22.1531 11.8125 21.9599 12.1847C21.7695 12.554 21.5124 12.8849 21.1886 13.1776C20.8675 13.4673 20.484 13.6974 20.038 13.8679C19.5948 14.0355 19.0934 14.1193 18.5337 14.1193C17.7553 14.1193 17.0593 13.9432 16.4457 13.5909C15.8349 13.2386 15.3519 12.7287 14.9968 12.0611C14.6445 11.3935 14.4684 10.5852 14.4684 9.63636C14.4684 8.68466 14.6474 7.875 15.0053 7.20739C15.3633 6.53977 15.8491 6.03125 16.4627 5.68182C17.0763 5.32955 17.7667 5.15341 18.5337 5.15341C19.0394 5.15341 19.5082 5.22443 19.94 5.36648C20.3746 5.50852 20.7596 5.71591 21.0948 5.98864C21.43 6.25852 21.7028 6.58949 21.913 6.98153C22.1261 7.37358 22.2624 7.82244 22.3221 8.32812ZM28.3796 7.78267C28.3455 7.43892 28.1992 7.17187 27.9407 6.98153C27.6822 6.79119 27.3313 6.69602 26.8881 6.69602C26.587 6.69602 26.3327 6.73864 26.1254 6.82386C25.918 6.90625 25.7589 7.02131 25.6481 7.16903C25.5401 7.31676 25.4862 7.48438 25.4862 7.67188C25.4805 7.82812 25.5131 7.96449 25.5842 8.08097C25.658 8.19744 25.7589 8.2983 25.8867 8.38352C26.0146 8.46591 26.1623 8.53835 26.3299 8.60085C26.4975 8.66051 26.6765 8.71165 26.8668 8.75426L27.6509 8.94176C28.0316 9.02699 28.381 9.14062 28.6992 9.28267C29.0174 9.42472 29.293 9.59943 29.5259 9.80682C29.7589 10.0142 29.9393 10.2585 30.0671 10.5398C30.1978 10.821 30.2646 11.1435 30.2674 11.5071C30.2646 12.0412 30.1282 12.5043 29.8583 12.8963C29.5913 13.2855 29.2049 13.5881 28.6992 13.804C28.1964 14.017 27.5898 14.1236 26.8796 14.1236C26.1751 14.1236 25.5614 14.0156 25.0387 13.7997C24.5188 13.5838 24.1126 13.2642 23.82 12.8409C23.5302 12.4148 23.3782 11.8878 23.364 11.2599H25.1495C25.1694 11.5526 25.2532 11.7969 25.4009 11.9929C25.5515 12.1861 25.7518 12.3324 26.0018 12.4318C26.2546 12.5284 26.5401 12.5767 26.8583 12.5767C27.1708 12.5767 27.4421 12.5312 27.6722 12.4403C27.9052 12.3494 28.0856 12.223 28.2134 12.0611C28.3413 11.8991 28.4052 11.7131 28.4052 11.5028C28.4052 11.3068 28.3469 11.142 28.2305 11.0085C28.1168 10.875 27.9492 10.7614 27.7276 10.6676C27.5089 10.5739 27.2404 10.4886 26.9222 10.4119L25.9719 10.1733C25.2362 9.99432 24.6552 9.71449 24.229 9.33381C23.8029 8.95312 23.5913 8.44034 23.5941 7.79545C23.5913 7.26705 23.7319 6.8054 24.016 6.41051C24.3029 6.01562 24.6964 5.70739 25.1964 5.4858C25.6964 5.2642 26.2646 5.15341 26.9009 5.15341C27.5487 5.15341 28.114 5.2642 28.5969 5.4858C29.0827 5.70739 29.4606 6.01562 29.7305 6.41051C30.0004 6.8054 30.1396 7.26278 30.1481 7.78267H28.3796ZM36.2429 7.78267C36.2088 7.43892 36.0625 7.17187 35.804 6.98153C35.5455 6.79119 35.1946 6.69602 34.7514 6.69602C34.4503 6.69602 34.196 6.73864 33.9886 6.82386C33.7813 6.90625 33.6222 7.02131 33.5114 7.16903C33.4034 7.31676 33.3494 7.48438 33.3494 7.67188C33.3438 7.82812 33.3764 7.96449 33.4474 8.08097C33.5213 8.19744 33.6222 8.2983 33.75 8.38352C33.8778 8.46591 34.0256 8.53835 34.1932 8.60085C34.3608 8.66051 34.5398 8.71165 34.7301 8.75426L35.5142 8.94176C35.8949 9.02699 36.2443 9.14062 36.5625 9.28267C36.8807 9.42472 37.1563 9.59943 37.3892 9.80682C37.6222 10.0142 37.8026 10.2585 37.9304 10.5398C38.0611 10.821 38.1278 11.1435 38.1307 11.5071C38.1278 12.0412 37.9915 12.5043 37.7216 12.8963C37.4545 13.2855 37.0682 13.5881 36.5625 13.804C36.0597 14.017 35.4531 14.1236 34.7429 14.1236C34.0384 14.1236 33.4247 14.0156 32.902 13.7997C32.3821 13.5838 31.9759 13.2642 31.6832 12.8409C31.3935 12.4148 31.2415 11.8878 31.2273 11.2599H33.0128C33.0327 11.5526 33.1165 11.7969 33.2642 11.9929C33.4148 12.1861 33.6151 12.3324 33.8651 12.4318C34.1179 12.5284 34.4034 12.5767 34.7216 12.5767C35.0341 12.5767 35.3054 12.5312 35.5355 12.4403C35.7685 12.3494 35.9489 12.223 36.0767 12.0611C36.2045 11.8991 36.2685 11.7131 36.2685 11.5028C36.2685 11.3068 36.2102 11.142 36.0938 11.0085C35.9801 10.875 35.8125 10.7614 35.5909 10.6676C35.3722 10.5739 35.1037 10.4886 34.7855 10.4119L33.8352 10.1733C33.0994 9.99432 32.5185 9.71449 32.0923 9.33381C31.6662 8.95312 31.4545 8.44034 31.4574 7.79545C31.4545 7.26705 31.5952 6.8054 31.8793 6.41051C32.1662 6.01562 32.5597 5.70739 33.0597 5.4858C33.5597 5.2642 34.1278 5.15341 34.7642 5.15341C35.4119 5.15341 35.9773 5.2642 36.4602 5.4858C36.946 5.70739 37.3239 6.01562 37.5938 6.41051C37.8636 6.8054 38.0028 7.26278 38.0114 7.78267H36.2429Z" fill="white"/>
</svg>
